<svg width="24" height="25" viewBox="0 0 24 25" fill="none" xmlns="http://www.w3.org/2000/svg">
<g clip-path="url(#clip0_13_2234)">
<path d="M13.5 13.25H17.6895L18.969 14.531C19.0388 14.6006 19.1216 14.6558 19.2127 14.6933C19.3038 14.7309 19.4014 14.7502 19.5 14.75H21C21.1989 14.75 21.3897 14.671 21.5303 14.5303C21.671 14.3897 21.75 14.1989 21.75 14V12.5C21.75 12.3011 21.671 12.1103 21.5303 11.9697C21.3897 11.829 21.1989 11.75 21 11.75H13.5V13.25Z" fill="#8062D6"/>
<path d="M18 5H6C4.4087 5 2.88258 5.63214 1.75736 6.75736C0.632141 7.88258 0 9.4087 0 11L0 20C0 20.3978 0.158035 20.7794 0.43934 21.0607C0.720644 21.342 1.10218 21.5 1.5 21.5H22.5C22.8978 21.5 23.2794 21.342 23.5607 21.0607C23.842 20.7794 24 20.3978 24 20V11C24 9.4087 23.3679 7.88258 22.2426 6.75736C21.1174 5.63214 19.5913 5 18 5ZM12 11C12.001 10.1486 11.8204 9.30682 11.4701 8.53082C11.1199 7.75482 10.6081 7.06246 9.969 6.5H18C19.1935 6.5 20.3381 6.97411 21.182 7.81802C22.0259 8.66193 22.5 9.80653 22.5 11V20H12V11ZM6.8775 11.2355C6.63 11.1305 6.327 11 6 11C5.673 11 5.37 11.129 5.1225 11.2355C4.746 11.396 4.5 11.501 4.5 11C4.5 10.6022 4.65804 10.2206 4.93934 9.93934C5.22064 9.65804 5.60218 9.5 6 9.5C6.39782 9.5 6.77936 9.65804 7.06066 9.93934C7.34196 10.2206 7.5 10.6022 7.5 11C7.5 11.501 7.254 11.396 6.8775 11.2355Z" fill="#8062D6"/>
</g>
<defs>
<clipPath id="clip0_13_2234">
<rect width="24" height="24" fill="white" transform="translate(0 0.5)"/>
</clipPath>
</defs>
</svg>
