<svg width="25" height="25" viewBox="0 0 25 25" fill="none" xmlns="http://www.w3.org/2000/svg">
<g id="icons8-mail 1">
<path id="Vector" d="M7 2C4.24433 2 2 4.24433 2 7V18C2 20.7557 4.24433 23 7 23H18C20.7557 23 23 20.7557 23 18V7C23 4.24433 20.7557 2 18 2H7ZM6.5 8H18.5C18.59 8 18.6749 8.01016 18.7549 8.03516L13.8398 12.9453C13.0998 13.6853 11.8953 13.6853 11.1553 12.9453L6.24512 8.03516C6.32512 8.01016 6.41 8 6.5 8ZM5.53516 8.74512L9.29492 12.5L5.53516 16.2549C5.51016 16.1749 5.5 16.09 5.5 16V9C5.5 8.91 5.51016 8.82512 5.53516 8.74512ZM19.4648 8.74512C19.4898 8.82512 19.5 8.91 19.5 9V16C19.5 16.09 19.4898 16.1749 19.4648 16.2549L15.7002 12.5L19.4648 8.74512ZM10 13.2051L10.4453 13.6553C11.0103 14.2203 11.7551 14.5 12.4951 14.5C13.2401 14.5 13.9799 14.2203 14.5449 13.6553L14.9951 13.2051L18.7549 16.9648C18.6749 16.9898 18.59 17 18.5 17H6.5C6.41 17 6.32512 16.9898 6.24512 16.9648L10 13.2051Z" fill="#8062D6"/>
</g>
</svg>
