<svg width="25" height="25" viewBox="0 0 25 25" fill="none" xmlns="http://www.w3.org/2000/svg">
<path d="M20.5 2H4.5C3.12 2 2 3.12 2 4.5V20.5C2 21.88 3.12 23 4.5 23H20.5C21.88 23 23 21.88 23 20.5V4.5C23 3.12 21.88 2 20.5 2ZM8.5 10V19.5H5.5V10H8.5ZM5.5 7.235C5.5 6.535 6.1 6 7 6C7.9 6 8.465 6.535 8.5 7.235C8.5 7.935 7.94 8.5 7 8.5C6.1 8.5 5.5 7.935 5.5 7.235ZM19.5 19.5H16.5C16.5 19.5 16.5 14.87 16.5 14.5C16.5 13.5 16 12.5 14.75 12.48H14.71C13.5 12.48 13 13.51 13 14.5C13 14.955 13 19.5 13 19.5H10V10H13V11.28C13 11.28 13.965 10 15.905 10C17.89 10 19.5 11.365 19.5 14.13V19.5Z" fill="#8062D6"/>
</svg>
